<svg xmlns="http://www.w3.org/2000/svg" width="48" height="30" viewBox="0 0 48 30">
  <g id="Group_38" data-name="Group 38" transform="translate(-236.5 -734)">
    <rect id="_48_48" data-name="48×48" width="48" height="30" transform="translate(236.5 734)" fill="none"/>
    <rect id="_30_30" data-name="30×30" width="30" height="30" transform="translate(245.5 734)" fill="none"/>
    <g id="グループ">
      <path id="Union_1" data-name="Union 1" d="M246.918,755.171a3.877,3.877,0,0,1-.793.08A2.925,2.925,0,0,1,243,752.125c0-1.88,1.153-3.953,2.657-4.318,1.055-6.453,7.3-11.931,14.842-11.931s13.788,5.478,14.843,11.931c1.5.366,2.657,2.438,2.657,4.318a2.926,2.926,0,0,1-3.125,3.126,3.877,3.877,0,0,1-.793-.08c-2.4,4.25-7.577,6.955-13.583,6.955S249.314,759.421,246.918,755.171Z" fill="none" stroke="#ffa1c2" stroke-miterlimit="10" stroke-width="1.5"/>
      <ellipse id="Ellipse_1" data-name="Ellipse 1" cx="0.679" cy="0.66" rx="0.679" ry="0.66" transform="translate(254.386 747.715)" fill="none" stroke="#ffa1c2" stroke-miterlimit="10" stroke-width="1.5"/>
      <ellipse id="Ellipse_2" data-name="Ellipse 2" cx="0.679" cy="0.66" rx="0.679" ry="0.66" transform="translate(265.255 747.715)" fill="none" stroke="#ffa1c2" stroke-miterlimit="10" stroke-width="1.5"/>
      <path id="Path_10" data-name="Path 10" d="M257.1,754.312a5.031,5.031,0,0,0,6.794,0" fill="none" stroke="#ffa1c2" stroke-linecap="round" stroke-miterlimit="10" stroke-width="1.5"/>
      <path id="Path_11" data-name="Path 11" d="M257.375,739.625c0,2.071,1.4,3.75,3.125,3.75s3.125-1.679,3.125-3.75-1.4-3.75-3.125-3.75" fill="none" stroke="#ffa1c2" stroke-linecap="round" stroke-miterlimit="10" stroke-width="1.5"/>
    </g>
  </g>
</svg>
