<svg xmlns="http://www.w3.org/2000/svg" width="48" height="30" viewBox="0 0 48 30">
  <g id="Group_40" data-name="Group 40" transform="translate(-163.5 -734)">
    <g id="Group_37" data-name="Group 37">
      <rect id="_48_48" data-name="48×48" width="48" height="30" transform="translate(163.5 734)" fill="none"/>
      <rect id="_30_30" data-name="30×30" width="30.15" height="30" transform="translate(172.5 734)" fill="none"/>
      <g id="グループ線" transform="translate(171.325 737.125)">
        <path id="Path_1" data-name="Path 1" d="M187.5,760.875c0-.328-3.638-1.249-8.125-1.249s-8.125.921-8.125,1.249V739.489c0-1.3,3.339-2.364,8.125-2.364s8.125,1.059,8.125,2.364Z" transform="translate(-171.25 -737.125)" fill="none" stroke="#ffa1c2" stroke-linecap="round" stroke-linejoin="round" stroke-width="1.5"/>
        <path id="Path_2" data-name="Path 2" d="M203.75,741.859v-2.37c0-1.3-3.339-2.364-8.125-2.364s-8.125,1.059-8.125,2.364v21.386c0-.328,3.638-1.249,8.125-1.249s8.125.921,8.125,1.249v-11.1" transform="translate(-171.25 -737.125)" fill="none" stroke="#ffa1c2" stroke-linecap="round" stroke-linejoin="round" stroke-width="1.5"/>
      </g>
    </g>
    <g id="グループ塗り" transform="translate(190.864 740.612)">
      <path id="Rectangle_1" data-name="Rectangle 1" d="M0,0H16.25a.625.625,0,0,1,.625.625v2.5a.625.625,0,0,1-.625.625H0a0,0,0,0,1,0,0V0A0,0,0,0,1,0,0Z" transform="translate(3.854 8.438) rotate(-30)" fill="#ffa1c2"/>
      <path id="Path_3" data-name="Path 3" d="M193.269,749.8l1.875,3.248-3.845.655a.624.624,0,0,1-.52-.9Z" transform="translate(-190.713 -740.612)" fill="#ffa1c2"/>
    </g>
  </g>
</svg>
